<svg xmlns="http://www.w3.org/2000/svg" width="70" height="24" viewBox="0 0 70 24" fill="none">
    <path fill-rule="evenodd" clip-rule="evenodd"
          d="M40.0368 19.9734V4.81403H45.4623C46.8743 4.81403 48.1977 5.50231 49.0084 6.65837L52.638 11.8339C52.8935 12.1982 53.0306 12.6318 53.0306 13.0768V17.6412C53.0306 19.5069 52.4072 19.9734 51.554 19.9734H50.8629C50.8629 19.9731 50.8629 19.9729 50.8629 19.9727C50.8629 17.5806 48.9237 15.6415 46.5317 15.6415C44.1396 15.6415 42.2004 17.5806 42.2004 19.9727C42.2004 19.9729 42.2004 19.9731 42.2004 19.9734H40.0368ZM42.2004 7.52041H45.4172C46.1166 7.52041 46.7729 7.85817 47.1794 8.42728L48.6272 10.4541C48.8832 10.8125 48.627 11.3102 48.1866 11.3102H42.2004V7.52041Z"
          fill="#22B0F3"/>
    <ellipse cx="46.5256" cy="19.9755" rx="2.8176" ry="2.81758" fill="#22B0F3"/>
    <path fill-rule="evenodd" clip-rule="evenodd"
          d="M20.5463 1.56689H36.7886C37.9846 1.56689 38.9542 2.53648 38.9542 3.73252V19.9747H30.2937C30.2937 19.9744 30.2937 19.9741 30.2937 19.9738C30.2937 17.5817 28.3545 15.6425 25.9624 15.6425C23.5704 15.6425 21.6312 17.5817 21.6312 19.9738C21.6312 19.9741 21.6312 19.9744 21.6312 19.9747H20.5463C19.3503 19.9747 18.3807 19.0051 18.3807 17.809V3.73252C18.3807 2.53648 19.3503 1.56689 20.5463 1.56689Z"
          fill="#22B0F3"/>
    <ellipse cx="25.9561" cy="19.9755" rx="2.8176" ry="2.81758" fill="#22B0F3"/>
</svg>
