<svg width="70" height="9" viewBox="0 0 70 9" fill="none" xmlns="http://www.w3.org/2000/svg">
<g clip-path="url(#clip0_19_30)">
<path d="M24.7315 6.68122C24.2914 6.68253 23.8607 6.55571 23.4936 6.31672C23.1271 6.07798 22.8409 5.73748 22.6714 5.33842C22.502 4.93999 22.4571 4.50093 22.5424 4.07726C22.6276 3.65359 22.8392 3.26453 23.1502 2.95972C23.4615 2.65353 23.8581 2.44495 24.2897 2.3603C24.7214 2.27565 25.1689 2.31872 25.5757 2.48407C25.9827 2.64922 26.3303 2.92867 26.5754 3.28732C26.8612 3.7064 26.9902 4.21021 26.9401 4.71253C26.8901 5.21484 26.6641 5.68442 26.301 6.04087C25.8844 6.45002 25.3201 6.68024 24.7315 6.68122ZM24.7315 7.34022e-05C23.9596 -0.00170127 23.1996 0.187551 22.5214 0.550423C21.8441 0.912829 21.2706 1.43752 20.8541 2.07592C20.226 3.03853 19.9951 4.20082 20.2086 5.32533C20.4221 6.44984 21.0639 7.45168 22.0028 8.12617C22.6257 8.57497 23.3533 8.8623 24.1187 8.9617C24.8841 9.0611 25.6625 8.96938 26.3824 8.69497C27.1016 8.42129 27.7392 7.97372 28.2363 7.39357C27.9331 7.94662 27.4946 8.40967 26.987 8.70082V8.93302H29.3101V4.47667C29.3042 3.28818 28.8195 2.1505 27.9624 1.31317C27.1032 0.473812 25.9422 0.00194236 24.7315 7.34022e-05ZM46.7625 6.72487H43.7407V5.26507H46.7054C47.0758 5.26507 47.5084 5.60707 47.5084 5.99542C47.5084 6.27712 47.2834 6.72577 46.7625 6.72577V6.72487ZM43.7407 2.27887L46.2787 2.27752C46.5535 2.27752 47.0081 2.55607 47.0081 3.00157C47.0081 3.35707 46.7136 3.73957 46.2023 3.73957H43.7407V2.27797V2.27887ZM48.8268 4.23097C49.3778 3.40972 49.4286 2.28697 48.9251 1.44772C48.6753 1.03211 48.3204 0.6873 47.8948 0.446923C47.4688 0.206064 46.9868 0.0775646 46.4955 0.0738734H41.4167V8.93257L47.0987 8.92897C48.8812 8.92897 49.8758 7.48672 49.8758 6.27667C49.8758 5.11252 49.2004 4.52842 48.8263 4.23007L48.8268 4.23097ZM39.1196 3.33817C39.882 5.35507 39.9208 7.18477 39.9208 8.93302H37.5625C37.5625 7.51507 37.5118 6.22402 37.209 5.05627C36.803 3.49162 36.0475 2.35402 35.3451 2.35402C34.6431 2.35402 33.8867 3.49162 33.4811 5.05627C33.1784 6.22402 33.1281 7.48177 33.1281 8.93302H30.7698C30.7698 7.34227 30.8082 5.35507 31.5705 3.33817C32.2811 1.45942 33.6096 7.34022e-05 35.3455 7.34022e-05C37.0814 7.34022e-05 38.4085 1.45942 39.1196 3.33817ZM16.8756 0.0734234H19.2348V1.00672C19.2353 1.67697 19.0831 2.33881 18.7894 2.94352C18.4954 3.54878 18.0676 4.08168 17.5373 4.50322C18.0676 4.92489 18.4954 5.45796 18.7894 6.06337C19.0831 6.66808 19.2353 7.32992 19.2348 8.00017V8.93347H16.8751V7.76662C16.8752 7.48066 16.8178 7.1975 16.7064 6.93339C16.595 6.66929 16.4316 6.42944 16.2257 6.22762C15.8089 5.81906 15.2446 5.58966 14.6563 5.58966C14.068 5.58966 13.5036 5.81906 13.0868 6.22762C12.8808 6.42937 12.7172 6.66918 12.6057 6.93329C12.4941 7.1974 12.4366 7.4806 12.4365 7.76662V8.93302H10.0768V7.99972C10.0763 7.32947 10.2285 6.66764 10.5223 6.06292C10.8165 5.45759 11.2446 4.92469 11.7753 4.50322C11.2444 4.0817 10.8161 3.54862 10.5218 2.94307C10.2282 2.33833 10.0762 1.67649 10.0768 1.00627V0.0734234H12.4365V1.23982C12.4365 1.81672 12.6702 2.37022 13.0864 2.77837C13.5032 3.18694 14.0675 3.41633 14.6558 3.41633C15.2441 3.41633 15.8085 3.18694 16.2253 2.77837C16.4313 2.57663 16.5948 2.33681 16.7064 2.07271C16.818 1.8086 16.8755 1.5254 16.8756 1.23937V0.0738734V0.0734234ZM55.3438 6.68122C54.9038 6.6825 54.4733 6.55568 54.1063 6.31672C53.8321 6.13897 53.6015 5.9033 53.4315 5.62685C53.2614 5.35041 53.1561 5.04013 53.1232 4.7186C53.0903 4.39707 53.1307 4.07237 53.2413 3.76812C53.352 3.46386 53.5302 3.1877 53.7629 2.95972C53.9959 2.73137 54.2772 2.5565 54.5869 2.44762C54.8965 2.33874 55.2268 2.29853 55.554 2.32987C55.8813 2.36122 56.1975 2.46334 56.48 2.62893C56.7625 2.79453 57.0043 3.01951 57.1881 3.28777C57.4739 3.70675 57.6028 4.21045 57.5529 4.71266C57.5029 5.21488 57.2771 5.68439 56.9142 6.04087C56.4973 6.4502 55.9327 6.68043 55.3438 6.68122ZM59.9228 4.47667C59.916 3.41995 59.5306 2.39944 58.8344 1.59487C58.1365 0.788854 57.1732 0.249581 56.1125 0.0711734C55.051 -0.107678 53.9593 0.0854815 53.0276 0.617023C52.0975 1.14726 51.3869 1.98289 51.0205 2.97727C50.655 3.97056 50.6579 5.05895 51.0287 6.05032C51.4001 7.04288 52.115 7.875 53.0477 8.40067C53.9821 8.92758 55.0748 9.11533 56.1354 8.93122C57.1952 8.74764 58.1558 8.20357 58.8495 7.39402C58.5463 7.94662 58.1077 8.40967 57.5997 8.70082V8.93302H59.9228V4.47667Z" fill="#231F20"/>
</g>
<defs>
<clipPath id="clip0_19_30">
<rect width="49.8459" height="9" fill="white" transform="translate(10.077)"/>
</clipPath>
</defs>
</svg>
