<svg width="70" height="24" viewBox="0 0 69 24" fill="none" xmlns="http://www.w3.org/2000/svg">
<path d="M55.2699 10.1599V16.0275H53.2118V11.9115H51.2302V16.0275H49.1721V10.1595H55.2699V10.1599Z" fill="black"/>
<path fill-rule="evenodd" clip-rule="evenodd" d="M44.9456 16.2371C46.7879 16.2371 48.156 15.0871 48.156 13.3437C48.156 11.6563 47.1466 10.5607 45.4597 10.5607C44.6811 10.5607 44.0387 10.8397 43.5549 11.3211C43.6704 10.3261 44.4969 9.59969 45.4068 9.59969C45.6168 9.59969 47.1979 9.59629 47.1979 9.59629L48.092 7.85449C48.092 7.85449 46.107 7.90049 45.1842 7.90049C43.0759 7.93789 41.6518 9.88888 41.6518 12.2585C41.6518 15.0191 43.0407 16.2371 44.9456 16.2371ZM44.9568 12.1035C45.6408 12.1035 46.115 12.5611 46.115 13.3435C46.115 14.0477 45.6937 14.6279 44.9568 14.6295C44.2519 14.6295 43.7776 14.0919 43.7776 13.3555C43.7776 12.5729 44.2519 12.1035 44.9568 12.1035Z" fill="black"/>
<path d="M39.9769 14.0631C39.9769 14.0631 39.4909 14.3483 38.765 14.4023C37.9305 14.4275 37.1869 13.8909 37.1869 12.9376C37.1869 12.0076 37.843 11.4746 38.744 11.4746C39.2964 11.4746 40.0272 11.8644 40.0272 11.8644C40.0272 11.8644 40.562 10.8654 40.839 10.3658C40.3317 9.97436 39.6561 9.75977 38.8703 9.75977C36.8871 9.75977 35.351 11.0762 35.351 12.9258C35.351 14.7989 36.7948 16.0847 38.8703 16.0459C39.4504 16.0239 40.2508 15.8165 40.7386 15.4975L39.9769 14.0631Z" fill="black"/>
<path d="M13.7319 5.22363L16.5868 10.4186V13.5874L13.7352 18.7722L13.7319 5.22363Z" fill="#5B57A2"/>
<path d="M24.6927 8.52834L27.3679 6.85914L32.8427 6.85394L24.6927 11.9367V8.52834Z" fill="#D90751"/>
<path d="M24.6789 5.19338L24.694 12.0714L21.8325 10.2814V0L24.6789 5.19338Z" fill="#FAB718"/>
<path d="M32.8439 6.85417L27.3689 6.85937L24.6789 5.19338L21.8325 0L32.8439 6.85417Z" fill="#ED6F26"/>
<path d="M24.694 18.801V15.464L21.8325 13.708L21.834 23.9996L24.694 18.801Z" fill="#63B22F"/>
<path d="M27.3619 17.147L16.5866 10.4186L13.7319 5.22363L32.8318 17.1402L27.3619 17.147Z" fill="#1487C9"/>
<path d="M21.8334 23.9996L24.693 18.801L27.3614 17.147L32.8313 17.1402L21.8334 23.9996Z" fill="#017F36"/>
<path d="M13.7358 18.7721L21.8558 13.7081L19.1259 12.0029L16.5873 13.5873L13.7358 18.7721Z" fill="#984995"/>
</svg>
