<svg width="75" height="75" viewBox="0 0 75 75" fill="none" xmlns="http://www.w3.org/2000/svg">
<path d="M8 41.9158V17.8482C8 17.4223 8.26976 17.0431 8.67213 16.9034L36.8833 7.11267C37.0937 7.03965 37.3224 7.03896 37.5332 7.11069L66.3221 16.9061C66.7274 17.044 67 17.4246 67 17.8528V41.9158C65.8317 52.8648 52.396 64.3899 37.2079 69C20.8515 64.3899 9.16832 52.8648 8 41.9158Z" stroke="black" stroke-width="2"/>
<path d="M43.9229 25.1314V27.4629H36.5857L35.1114 32.4C35.5571 32.2971 36.0029 32.2629 36.5514 32.2629C41.1457 32.2629 44.0943 35.7257 44.0943 40.1829C44.0943 45.2914 40.2543 48.4114 35.7629 48.4114C33.9114 48.4114 32.1971 47.8971 30.6543 46.6286C29.9343 46.0114 29.2143 45.2229 28.6657 44.2971L30.6886 42.8571C31.0657 43.6114 31.5457 44.16 32.2314 44.7086C33.1914 45.4971 34.3571 46.08 35.9343 46.08C39.1571 46.08 41.5571 43.44 41.5571 40.2171C41.5571 36.9257 39.1914 34.5943 35.9343 34.5943C35.1114 34.5943 33.5686 34.7314 31.5114 36.1714L34.8371 25.1314H43.9229Z" fill="black"/>
</svg>
