<svg width="75" height="75" viewBox="0 0 75 75" fill="none" xmlns="http://www.w3.org/2000/svg">
<rect x="14" y="31" width="47" height="36" rx="2" stroke="black" stroke-width="2"/>
<rect x="10" y="22" width="55" height="9" rx="2" stroke="black" stroke-width="2"/>
<rect x="33" y="67" width="36" height="9" transform="rotate(-90 33 67)" stroke="black" stroke-width="2"/>
<path d="M36.3576 18.4923C37.7296 19.7133 36.8683 21.9829 35.0317 21.9863L27.6885 22.0001L22.0272 22.0108C19.0387 22.0164 16.367 20.149 15.3455 17.3406L15.2966 17.2064C14.0889 13.8861 15.5698 10.1886 18.7357 8.62001V8.62001C21.2702 7.36424 24.3134 7.77331 26.4264 9.65381L36.3576 18.4923Z" stroke="black" stroke-width="2"/>
<path d="M37.7149 18.4682C36.3391 19.6985 37.2219 21.9768 39.0675 21.959L52.2993 21.8307C55.2571 21.8021 57.8735 19.9068 58.8229 17.1054V17.1054C59.956 13.7616 58.3937 10.0935 55.2042 8.5795V8.5795C52.6641 7.37377 49.6398 7.80439 47.5438 9.67868L37.7149 18.4682Z" stroke="black" stroke-width="2"/>
</svg>
